<svg xmlns="http://www.w3.org/2000/svg" width="50" height="60" viewBox="0 0 117.095 158.788">
          <g id="busmark" transform="translate(27 45.447)">
            <path id="ColorPath" fill='#1c54a3' d="M130.569,301.115c-2.783,2.753-1.263,2.753-4.044,0C90.951,265.914,70,233.228,70,202.939a58.548,58.548,0,0,1,117.1,0C187.093,233.231,166.141,265.915,130.569,301.115Z" transform="translate(-96.998 -189.839)"/>
            <g id="IconBus" transform="translate(0 -5)">
              <path id="Path_222" data-name="Path 222" d="M79.4,179.76H78.38a1.686,1.686,0,0,0-1.656,1.656v6.88a1.686,1.686,0,0,0,1.656,1.656h.955a1.686,1.686,0,0,0,1.656-1.656v-6.88A1.632,1.632,0,0,0,79.4,179.76Z" transform="translate(-76.724 -165.554)" fill="#fff"/>
              <path id="Path_223" data-name="Path 223" d="M588.374,189.28h-.955a1.686,1.686,0,0,0-1.656,1.656v6.88a1.686,1.686,0,0,0,1.656,1.656h.955a1.686,1.686,0,0,0,1.656-1.656v-6.88A1.645,1.645,0,0,0,588.374,189.28Z" transform="translate(-527.858 -173.991)" fill="#fff"/>
              <path id="Path_224" data-name="Path 224" d="M172.04,57.172c-5.8-2.166-20.448-2.293-20.448-2.293s-14.715.128-20.512,2.293-4.905,6.37-4.905,6.37V98.769a4.908,4.908,0,0,0,4.905,4.905h.573v2.23a1.686,1.686,0,0,0,1.656,1.656h6.434A1.686,1.686,0,0,0,141.4,105.9v-2.23h20.384v2.23a1.686,1.686,0,0,0,1.656,1.656h6.434a1.686,1.686,0,0,0,1.656-1.656v-2.23h.573a4.908,4.908,0,0,0,4.905-4.905V63.479c-.064,0,.828-4.141-4.969-6.307ZM146.5,59.083a.707.707,0,0,1,.7-.7h8.791a.707.707,0,0,1,.7.7v1.911a.707.707,0,0,1-.7.7H147.2a.707.707,0,0,1-.7-.7Zm-6.752,34.59a1.442,1.442,0,0,1-1.465,1.465h-5.669a1.442,1.442,0,0,1-1.465-1.465V90.616a1.361,1.361,0,0,1,.573-1.146,1.525,1.525,0,0,1,1.274-.255l5.669,1.529a1.491,1.491,0,0,1,1.083,1.4Zm-7.644-8.6a.871.871,0,0,1-.892-.892v-17.9a.871.871,0,0,1,.892-.892h38.794a.871.871,0,0,1,.892.892v17.9a.871.871,0,0,1-.892.892Zm39.877,8.6a1.441,1.441,0,0,1-1.465,1.465h-5.669a1.441,1.441,0,0,1-1.465-1.465V92.144a1.492,1.492,0,0,1,1.083-1.4l5.669-1.529a1.525,1.525,0,0,1,1.274.255,1.362,1.362,0,0,1,.573,1.146Z" transform="translate(-120.505 -54.879)" fill="#fff"/>
            </g>
          </g>
        </svg>
        