<svg width="46" height="60" viewBox="0 0 46 60" fill="none" xmlns="http://www.w3.org/2000/svg">
<path d="M23.7646 59.2197C22.713 60.26 23.2874 60.26 22.2365 59.2197C8.79446 45.9186 0.877869 33.5678 0.877869 22.1227C0.877869 16.2551 3.20877 10.6278 7.35779 6.47882C11.5068 2.3298 17.1341 -0.00109863 23.0017 -0.00109863C28.8693 -0.00109863 34.4966 2.3298 38.6456 6.47882C42.7946 10.6278 45.1255 16.2551 45.1255 22.1227C45.1229 33.5689 37.2059 45.919 23.7646 59.2197Z" fill="#FC0983"/>
<path fill-rule="evenodd" clip-rule="evenodd" d="M27.4924 17.063C27.4924 20.258 25.5624 23 22.9924 23C20.4204 23 18.4924 20.258 18.4924 17.062C18.4924 13.868 20.1524 12 22.9924 12C25.8324 12 27.4924 13.867 27.4924 17.063ZM15.0944 30.142C15.4794 30.6 17.1374 32 22.9924 32C28.8474 32 30.5044 30.6 30.8904 30.143C30.9262 30.0991 30.9527 30.0483 30.9681 29.9938C30.9836 29.9393 30.9878 29.8822 30.9804 29.826C30.8924 28.944 30.0984 25 22.9924 25C15.8864 25 15.0924 28.944 15.0034 29.826C14.9962 29.8823 15.0005 29.9394 15.0161 29.9939C15.0318 30.0484 15.0584 30.0982 15.0944 30.142Z" fill="white"/>
</svg>
